<svg width="20" height="20" viewBox="0 0 20 20" fill="none" xmlns="http://www.w3.org/2000/svg">
<path d="M17.575 5.81664C16.8667 5.03331 15.6833 4.64164 13.9667 4.64164H13.7667V4.60831C13.7667 3.20831 13.7667 1.47498 10.6333 1.47498H9.36666C6.23332 1.47498 6.23332 3.21664 6.23332 4.60831V4.64998H6.03332C4.30832 4.64998 3.13332 5.04164 2.42499 5.82498C1.59999 6.74164 1.62499 7.97498 1.70832 8.81664L1.71666 8.87497L1.77745 9.51326C1.79171 9.66303 1.87246 9.79841 1.99846 9.88063C2.20051 10.0125 2.51025 10.2112 2.69999 10.3166C2.81666 10.3916 2.94166 10.4583 3.06666 10.525C4.49166 11.3083 6.05832 11.8333 7.64999 12.0916C7.72499 12.875 8.06666 13.7916 9.89166 13.7916C11.7167 13.7916 12.075 12.8833 12.1333 12.075C13.8333 11.8 15.475 11.2083 16.9583 10.3416C17.0083 10.3166 17.0417 10.2916 17.0833 10.2666C17.4035 10.0857 17.7354 9.86397 18.04 9.6453C18.1532 9.56403 18.2254 9.43789 18.2408 9.29938L18.25 9.21664L18.2917 8.82498C18.3 8.77498 18.3 8.73331 18.3083 8.67497C18.375 7.83331 18.3583 6.68331 17.575 5.81664ZM10.9083 11.525C10.9083 12.4083 10.9083 12.5416 9.88332 12.5416C8.85832 12.5416 8.85832 12.3833 8.85832 11.5333V10.4833H10.9083V11.525ZM7.42499 4.64164V4.60831C7.42499 3.19164 7.42499 2.66664 9.36666 2.66664H10.6333C12.575 2.66664 12.575 3.19998 12.575 4.60831V4.64998H7.42499V4.64164Z" fill="#F478B8"/>
<path d="M17.2597 11.5091C17.6137 11.3418 18.0209 11.6223 17.9855 12.0123L17.7 15.1583C17.525 16.825 16.8416 18.525 13.175 18.525H6.82495C3.15828 18.525 2.47495 16.825 2.29995 15.1667L2.02924 12.1888C1.9942 11.8034 2.39252 11.5233 2.74555 11.682C3.70476 12.1131 5.31676 12.8064 6.35274 13.0854C6.51675 13.1296 6.6499 13.2476 6.7243 13.4003C7.23851 14.4556 8.32769 15.0167 9.89162 15.0167C11.4401 15.0167 12.5426 14.434 13.0588 13.3755C13.1333 13.2227 13.2664 13.1048 13.4304 13.0604C14.5322 12.7619 16.2536 11.9846 17.2597 11.5091Z" fill="#F478B8"/>
</svg>
