<svg width="24" height="24" viewBox="0 0 24 24" fill="none" xmlns="http://www.w3.org/2000/svg">
  <path d="M19.75 3.56V2C19.75 1.59 19.41 1.25 19 1.25C18.59 1.25 18.25 1.59 18.25 2V3.5H11.75V2C11.75 1.59 11.41 1.25 11 1.25C10.59 1.25 10.25 1.59 10.25 2V3.56C7.54999 3.81 6.23999 5.42 6.03999 7.81C6.01999 8.1 6.25999 8.34 6.53999 8.34H23.46C23.75 8.34 23.99 8.09 23.96 7.81C23.76 5.42 22.45 3.81 19.75 3.56Z" fill="#5F33E1"/>
  
  <path d="M23 9.84H7C6.45 9.84 6 10.29 6 10.84V17C6 20 7.5 22 11 22H19C22.5 22 24 20 24 17V10.84C24 10.29 23.55 9.84 23 9.84ZM12.21 18.21C12.16 18.25 12.11 18.3 12.06 18.33C12 18.37 11.94 18.4 11.88 18.42C11.82 18.45 11.76 18.47 11.7 18.48C11.63 18.49 11.57 18.5 11.5 18.5C11.37 18.5 11.24 18.47 11.12 18.42C10.99 18.37 10.89 18.3 10.79 18.21C10.61 18.02 10.5 17.76 10.5 17.5C10.5 17.24 10.61 16.98 10.79 16.79C10.89 16.7 10.99 16.63 11.12 16.58C11.3 16.5 11.5 16.48 11.7 16.52C11.76 16.53 11.82 16.55 11.88 16.58C11.94 16.6 12 16.63 12.06 16.67C12.11 16.71 12.16 16.75 12.21 16.79C12.39 16.98 12.5 17.24 12.5 17.5C12.5 17.76 12.39 18.02 12.21 18.21ZM12.21 14.71C12.02 14.89 11.76 15 11.5 15C11.24 15 10.98 14.89 10.79 14.71C10.61 14.52 10.5 14.26 10.5 14C10.5 13.74 10.61 13.48 10.79 13.29C11.07 13.01 11.51 12.92 11.88 13.08C12.01 13.13 12.12 13.2 12.21 13.29C12.39 13.48 12.5 13.74 12.5 14C12.5 14.26 12.39 14.52 12.21 14.71ZM15.71 18.21C15.52 18.39 15.26 18.5 15 18.5C14.74 18.5 14.48 18.39 14.29 18.21C14.11 18.02 14 17.76 14 17.5C14 17.24 14.11 16.98 14.29 16.79C14.66 16.42 15.34 16.42 15.71 16.79C15.89 16.98 16 17.24 16 17.5C16 17.76 15.89 18.02 15.71 18.21ZM15.71 14.71C15.66 14.75 15.61 14.79 15.56 14.83C15.5 14.87 15.44 14.9 15.38 14.92C15.32 14.95 15.26 14.97 15.2 14.98C15.13 14.99 15.07 15 15 15C14.74 15 14.48 14.89 14.29 14.71C14.11 14.52 14 14.26 14 14C14 13.74 14.11 13.48 14.29 13.29C14.38 13.2 14.49 13.13 14.62 13.08C14.99 12.92 15.43 13.01 15.71 13.29C15.89 13.48 16 13.74 16 14C16 14.26 15.89 14.52 15.71 14.71ZM19.21 18.21C19.02 18.39 18.76 18.5 18.5 18.5C18.24 18.5 17.98 18.39 17.79 18.21C17.61 18.02 17.5 17.76 17.5 17.5C17.5 17.24 17.61 16.98 17.79 16.79C18.16 16.42 18.84 16.42 19.21 16.79C19.39 16.98 19.5 17.24 19.5 17.5C19.5 17.76 19.39 18.02 19.21 18.21ZM19.21 14.71C19.16 14.75 19.11 14.79 19.06 14.83C19 14.87 18.94 14.9 18.88 14.92C18.82 14.95 18.76 14.97 18.7 14.98C18.63 14.99 18.56 15 18.5 15C18.24 15 17.98 14.89 17.79 14.71C17.61 14.52 17.5 14.26 17.5 14C17.5 13.74 17.61 13.48 17.79 13.29C17.89 13.2 17.99 13.13 18.12 13.08C18.3 13 18.5 12.98 18.7 13.02C18.76 13.03 18.82 13.05 18.88 13.08C18.94 13.1 19 13.13 19.06 13.17C19.11 13.21 19.16 13.25 19.21 13.29C19.39 13.48 19.5 13.74 19.5 14C19.5 14.26 19.39 14.52 19.21 14.71Z" fill="#5F33E1"/>
</svg>