<svg width="25" height="25" viewBox="0 0 25 25" fill="none" xmlns="http://www.w3.org/2000/svg">
<path d="M4.66663 14C4.29996 14 3.98618 13.8696 3.72529 13.6087C3.46441 13.3478 3.33374 13.0338 3.33329 12.6667V4C3.14441 4 2.98618 3.936 2.85863 3.808C2.73107 3.68 2.66707 3.52178 2.66663 3.33333C2.66618 3.14489 2.73018 2.98667 2.85863 2.85867C2.98707 2.73067 3.14529 2.66667 3.33329 2.66667H5.99996C5.99996 2.47778 6.06396 2.31956 6.19196 2.192C6.31996 2.06444 6.47818 2.00044 6.66663 2H9.3333C9.52218 2 9.68063 2.064 9.80863 2.192C9.93663 2.32 10.0004 2.47822 9.99996 2.66667H12.6666C12.8555 2.66667 13.014 2.73067 13.142 2.85867C13.27 2.98667 13.3337 3.14489 13.3333 3.33333C13.3329 3.52178 13.2689 3.68022 13.1413 3.80867C13.0137 3.93711 12.8555 4.00089 12.6666 4V12.6667C12.6666 13.0333 12.5362 13.3473 12.2753 13.6087C12.0144 13.87 11.7004 14.0004 11.3333 14H4.66663ZM11.3333 4H4.66663V12.6667H11.3333V4ZM7.14196 11.142C7.26952 11.014 7.33329 10.8556 7.33329 10.6667V6C7.33329 5.81111 7.26929 5.65289 7.14129 5.52533C7.01329 5.39778 6.85507 5.33378 6.66663 5.33333C6.47818 5.33289 6.31996 5.39689 6.19196 5.52533C6.06396 5.65378 5.99996 5.812 5.99996 6V10.6667C5.99996 10.8556 6.06396 11.014 6.19196 11.142C6.31996 11.27 6.47818 11.3338 6.66663 11.3333C6.85507 11.3329 7.01352 11.2696 7.14196 11.142ZM9.80863 11.1413C9.93618 11.0142 9.99996 10.856 9.99996 10.6667V6C9.99996 5.81111 9.93596 5.65289 9.80796 5.52533C9.67996 5.39778 9.52174 5.33378 9.3333 5.33333C9.14485 5.33289 8.98663 5.39689 8.85863 5.52533C8.73063 5.65378 8.66663 5.812 8.66663 6V10.6667C8.66663 10.8556 8.73063 11.014 8.85863 11.142C8.98663 11.27 9.14485 11.3338 9.3333 11.3333C9.52174 11.3329 9.68018 11.2689 9.80863 11.1413Z" fill="black"/>
</svg>
