<svg width="25" height="25" viewBox="0 0 25 25" fill="none" xmlns="http://www.w3.org/2000/svg">
<path d="M10.69 2.00997C11.0489 1.6509 11.531 1.44181 12.0385 1.4251C12.546 1.40838 13.0408 1.5853 13.4226 1.91997L13.5186 2.00997L13.99 2.48131C14.3488 2.84025 14.5578 3.32223 14.5745 3.82953C14.5912 4.33683 14.4144 4.83152 14.08 5.21331L13.99 5.30931L6.51528 12.7846C6.4096 12.8903 6.28157 12.971 6.14062 13.0206L6.03262 13.052L3.06328 13.7373C2.95924 13.7615 2.85091 13.7603 2.74741 13.7339C2.64391 13.7075 2.54827 13.6566 2.46855 13.5855C2.38883 13.5144 2.32736 13.4252 2.28932 13.3254C2.25128 13.2256 2.23777 13.1181 2.24995 13.012L2.26328 12.9366L2.94795 9.96664C2.98177 9.82097 3.04784 9.68473 3.14128 9.56797L3.21528 9.48464L10.69 2.00997ZM10.2186 4.36664L4.22528 10.36L3.80128 12.1986L5.63995 11.774L11.6333 5.78064L10.2186 4.36664ZM12.576 2.95264C12.4612 2.83785 12.3084 2.7689 12.1464 2.75871C11.9844 2.74853 11.8242 2.7978 11.696 2.89731L11.6333 2.95264L11.1613 3.42397L12.576 4.83797L13.0473 4.36664C13.1621 4.25184 13.231 4.09911 13.2412 3.93709C13.2514 3.77508 13.2021 3.61491 13.1026 3.48664L13.0473 3.42397L12.576 2.95264Z" fill="black"/>
</svg>
